<?xml version="1.0" encoding="UTF-8" standalone="no"?>
<svg
   xmlns:dc="http://purl.org/dc/elements/1.1/"
   xmlns:cc="http://creativecommons.org/ns#"
   xmlns:rdf="http://www.w3.org/1999/02/22-rdf-syntax-ns#"
   xmlns:svg="http://www.w3.org/2000/svg"
   xmlns="http://www.w3.org/2000/svg"
   viewBox="0 0 606.1333 356.09332"
   height="356.09332"
   width="606.1333"
   xml:space="preserve"
   id="svg2"
   version="1.1"><metadata
     id="metadata8"><rdf:RDF><cc:Work
         rdf:about=""><dc:format>image/svg+xml</dc:format><dc:type
           rdf:resource="http://purl.org/dc/dcmitype/StillImage" /></cc:Work></rdf:RDF></metadata><defs
     id="defs6" /><g
     transform="matrix(1.3333333,0,0,-1.3333333,0,356.09333)"
     id="g10"><g
       transform="scale(0.1)"
       id="g12"><path
         id="path14"
         style="fill:#040606;fill-opacity:1;fill-rule:nonzero;stroke:none"
         d="m 2627.15,1811.26 v 74.3 c 0,24.78 -20.18,45.41 -45.41,45.41 h -16.52 c -25.22,0 -45.4,-20.63 -45.4,-45.41 v -74.3 c 0,-25.23 20.18,-45.41 45.4,-45.41 h 16.52 c 25.23,0 45.41,20.18 45.41,45.41 z m 38.53,233.93 v -313.74 h -38.53 v 16.97 c -14.68,-13.3 -33.94,-21.1 -55.04,-21.1 h -6.89 c -46.31,0 -83.93,37.61 -83.93,83.94 v 74.3 c 0,46.33 37.62,83.94 83.93,83.94 h 6.89 c 21.1,0 40.36,-7.8 55.04,-21.1 v 96.79 h 38.53" /><path
         id="path16"
         style="fill:#040606;fill-opacity:1;fill-rule:nonzero;stroke:none"
         d="m 2903.7,1873.18 v 12.38 c 0,25.23 -20.18,45.41 -45.41,45.41 h -16.51 c -25.23,0 -45.41,-20.18 -45.41,-45.41 v -12.38 z m -45.41,96.32 c 46.33,0 83.94,-37.61 83.94,-83.94 v -48.61 h -145.86 v -25.69 c 0,-25.23 20.18,-45.41 45.41,-45.41 h 17.43 c 21.1,0 39.44,15.14 44.03,35.31 l 36.69,-11 c -8.71,-35.78 -41.74,-62.84 -80.72,-62.84 h -17.43 c -46.33,0 -83.94,37.61 -83.94,83.94 v 74.3 c 0,46.33 37.61,83.94 83.94,83.94 h 16.51" /><path
         id="path18"
         style="fill:#040606;fill-opacity:1;fill-rule:nonzero;stroke:none"
         d="m 3066.04,1787.86 c 3.67,-12.84 14.67,-22.01 28.44,-22.01 h 51.37 c 16.51,0 29.36,13.3 29.36,29.36 0,16.97 -12.39,28.9 -29.36,31.19 l -49.08,6.87 c -34.86,4.14 -63.29,33.03 -63.29,68.34 0,37.62 30.27,67.89 67.88,67.89 h 43.11 c 31.19,0 56.88,-20.64 65.14,-48.62 l -36.7,-11 c -3.67,12.38 -14.68,21.09 -28.44,21.09 h -43.11 c -16.52,0 -29.36,-12.84 -29.36,-29.36 0,-17.88 16.06,-28.43 30.28,-30.27 l 49.54,-6.88 c 36.23,-5.5 61.91,-33.02 61.91,-69.25 0,-37.16 -30.27,-67.89 -67.88,-67.89 h -51.37 c -30.73,0 -56.88,20.64 -65.13,48.62 l 36.69,11.92" /><path
         id="path20"
         style="fill:#040606;fill-opacity:1;fill-rule:nonzero;stroke:none"
         d="m 3383.87,2069.04 h 38.53 v -70.18 h -38.53 z m 38.53,-103.66 v -195.41 h 74.31 v -38.52 h -192.65 v 38.52 h 79.81 v 156.88 h -64.67 v 38.53 h 103.2" /><path
         id="path22"
         style="fill:#040606;fill-opacity:1;fill-rule:nonzero;stroke:none"
         d="m 3716.84,1823.64 v 61.92 c 0,25.23 -20.18,45.41 -45.41,45.41 h -16.52 c -24.76,0 -45.4,-20.18 -45.4,-45.41 v -61.92 c 0,-24.77 20.64,-45.41 45.4,-45.41 h 16.52 c 25.23,0 45.41,20.64 45.41,45.41 z m 38.53,141.74 v -233.93 c 0,-46.33 -37.16,-83.94 -83.94,-83.94 h -16.52 c -39.44,0 -72.01,27.06 -81.64,63.29 l 37.15,11.02 c 4.59,-20.64 22.48,-35.78 44.49,-35.78 h 16.52 c 25.23,0 45.41,20.64 45.41,45.41 v 29.35 c -14.68,-13.3 -33.94,-21.1 -55.04,-21.1 h -6.89 c -46.32,0 -83.93,38.08 -83.93,83.94 v 61.92 c 0,46.79 37.61,83.94 83.93,83.94 h 6.89 c 21.1,0 40.36,-7.8 55.04,-20.64 v 16.52 h 38.53" /><path
         id="path24"
         style="fill:#040606;fill-opacity:1;fill-rule:nonzero;stroke:none"
         d="m 4031.91,1885.56 v -154.11 h -38.52 v 154.11 c 0,24.78 -20.19,45.41 -45.41,45.41 h -16.52 c -25.22,0 -45.41,-20.63 -45.41,-45.41 v -154.11 h -38.52 v 233.93 h 38.52 v -16.98 c 14.68,13.3 33.95,21.1 55.05,21.1 h 6.88 c 46.33,0 83.93,-37.61 83.93,-83.94" /><path
         id="path26"
         style="fill:#040606;fill-opacity:1;fill-rule:nonzero;stroke:none"
         d="m 2627.15,1260.9 v 24.31 h -74.77 c -19.71,0 -34.85,-16.06 -34.85,-34.87 0,-19.25 15.14,-34.85 34.85,-34.85 h 29.36 c 24.77,0 45.41,20.18 45.41,45.41 z m 38.53,74.31 v -154.12 h -38.53 v 16.97 c -14.68,-13.3 -33.94,-21.1 -55.04,-21.1 h -19.73 c -40.36,0 -72.47,32.56 -72.47,72.47 0,39.45 32.11,72.01 72.47,72.01 h 74.77 v 13.77 c 0,25.22 -20.64,45.4 -45.41,45.4 h -15.6 c -22.01,0 -39.9,-15.14 -44.49,-35.77 l -36.69,11.46 c 9.17,35.78 41.74,62.84 81.18,62.84 h 15.6 c 46.33,0 83.94,-37.61 83.94,-83.93" /><path
         id="path28"
         style="fill:#040606;fill-opacity:1;fill-rule:nonzero;stroke:none"
         d="m 2942.23,1335.21 v -154.12 h -38.53 v 154.12 c 0,24.76 -20.18,45.4 -45.41,45.4 h -16.51 c -25.23,0 -45.41,-20.64 -45.41,-45.4 v -154.12 h -38.53 v 233.92 h 38.53 v -16.97 c 14.67,13.3 33.94,21.1 55.05,21.1 h 6.87 c 46.33,0 83.94,-37.61 83.94,-83.93" /><path
         id="path30"
         style="fill:#040606;fill-opacity:1;fill-rule:nonzero;stroke:none"
         d="m 3171.99,1260.9 v 74.31 c 0,24.76 -20.17,45.4 -45.41,45.4 h -16.51 c -25.23,0 -45.4,-20.64 -45.4,-45.4 v -74.31 c 0,-25.23 20.17,-45.41 45.4,-45.41 h 16.51 c 25.24,0 45.41,20.18 45.41,45.41 z m 38.54,233.93 v -313.74 h -38.54 v 16.97 c -14.68,-13.3 -33.93,-21.1 -55.04,-21.1 h -6.88 c -46.32,0 -83.94,37.61 -83.94,83.94 v 74.31 c 0,46.32 37.62,83.93 83.94,83.93 h 6.88 c 21.11,0 40.36,-7.8 55.04,-21.1 v 96.79 h 38.54" /><path
         id="path32"
         style="fill:#040606;fill-opacity:1;fill-rule:nonzero;stroke:none"
         d="m 2488.17,784.84 c 0,46.32 37.61,83.941 83.94,83.941 h 16.97 c 38.99,0 72.01,-27.062 81.18,-62.84 l -37.14,-11.011 c -4.59,20.179 -22.49,35.32 -44.04,35.32 h -16.97 c -25.23,0 -45.41,-20.18 -45.41,-45.41 v -74.301 c 0,-25.23 20.18,-45.41 45.41,-45.41 h 16.97 c 21.55,0 39.45,15.601 44.04,35.769 l 37.14,-11 c -9.17,-36.238 -42.19,-63.308 -81.18,-63.308 h -16.97 c -46.33,0 -83.94,37.621 -83.94,83.949 v 74.301" /><path
         id="path34"
         style="fill:#040606;fill-opacity:1;fill-rule:nonzero;stroke:none"
         d="m 2794.99,784.84 v -74.301 c 0,-25.23 20.19,-45.41 45.41,-45.41 h 16.51 c 25.23,0 45.41,20.18 45.41,45.41 v 74.301 c 0,25.23 -20.18,45.41 -45.41,45.41 h -16.51 c -25.22,0 -45.41,-20.18 -45.41,-45.41 z m 61.92,83.941 c 46.33,0 83.94,-37.621 83.94,-83.941 v -74.301 c 0,-46.328 -37.61,-83.949 -83.94,-83.949 h -16.51 c -46.33,0 -83.94,37.621 -83.94,83.949 v 74.301 c 0,46.32 37.61,83.941 83.94,83.941 h 16.51" /><path
         id="path36"
         style="fill:#040606;fill-opacity:1;fill-rule:nonzero;stroke:none"
         d="m 3171.99,710.539 v 74.301 c 0,24.769 -20.17,45.41 -45.41,45.41 h -16.51 c -25.23,0 -45.4,-20.641 -45.4,-45.41 v -74.301 c 0,-25.23 20.17,-45.41 45.4,-45.41 h 16.51 c 25.24,0 45.41,20.18 45.41,45.41 z m 38.54,233.93 V 630.73 h -38.54 v 16.969 c -14.68,-13.301 -33.93,-21.109 -55.04,-21.109 h -6.88 c -46.32,0 -83.94,37.621 -83.94,83.949 v 74.301 c 0,46.32 37.62,83.941 83.94,83.941 h 6.88 c 21.11,0 40.36,-7.801 55.04,-21.101 v 96.789 h 38.54" /><path
         id="path38"
         style="fill:#040606;fill-opacity:1;fill-rule:nonzero;stroke:none"
         d="m 3448.54,772.449 v 12.391 c 0,25.23 -20.18,45.41 -45.41,45.41 h -16.51 c -25.22,0 -45.41,-20.18 -45.41,-45.41 v -12.391 z m -45.41,96.332 c 46.33,0 83.94,-37.621 83.94,-83.941 v -48.621 h -145.86 v -25.68 c 0,-25.23 20.19,-45.41 45.41,-45.41 h 17.43 c 21.11,0 39.45,15.141 44.04,35.312 l 36.69,-11 c -8.72,-35.781 -41.74,-62.851 -80.73,-62.851 h -17.43 c -46.33,0 -83.93,37.621 -83.93,83.949 v 74.301 c 0,46.32 37.6,83.941 83.93,83.941 h 16.51" /><path
         id="path40"
         style="fill:#040606;fill-opacity:1;fill-rule:nonzero;stroke:none"
         d="m 1254.62,1217.03 c 0,-26.52 20.84,-48 48,-48 h 40.42 c 34.11,0 62.54,27.8 62.54,62.55 v 33.45 h -102.96 c -27.16,0 -48,-22.1 -48,-48" /><path
         id="path42"
         style="fill:#040606;fill-opacity:1;fill-rule:nonzero;stroke:none"
         d="m 1704.94,1169.03 h 23.37 c 29.69,0 54.32,21.48 60.64,49.26 l 51.15,-15.14 c -12.63,-49.9 -58.1,-87.16 -111.79,-87.16 h -23.37 c -63.8,0 -115.58,51.78 -115.58,115.59 v 102.3 c 0,63.81 51.78,115.59 115.58,115.59 h 23.37 c 53.69,0 99.16,-37.26 111.79,-86.53 l -51.15,-15.16 c -6.32,27.78 -30.95,48.63 -60.64,48.63 h -23.37 c -34.73,0 -62.53,-27.78 -62.53,-62.53 v -102.3 c 0,-34.75 27.8,-62.55 62.53,-62.55 z m -246.32,-47.37 h -53.04 v 23.37 c -20.22,-18.31 -46.75,-29.04 -75.8,-29.04 h -27.16 c -55.58,0 -99.79,44.84 -99.79,99.78 0,54.33 44.21,99.16 99.79,99.16 h 102.96 v 18.95 c 0,34.75 -28.43,62.53 -62.54,62.53 h -21.47 c -30.33,0 -54.96,-20.85 -61.27,-49.27 l -50.52,15.8 c 12.62,49.27 57.48,86.53 111.79,86.53 h 21.47 c 63.8,0 115.58,-51.78 115.58,-115.59 z m -375.15,0 h -53.06 v 23.37 c -20.21,-18.31 -46.75,-29.04 -75.793,-29.04 h -9.469 c -63.8,0 -115.585,51.78 -115.585,115.59 v 102.3 c 0,63.81 51.785,115.59 115.585,115.59 h 9.469 c 29.043,0 55.583,-10.75 75.793,-29.07 v 133.27 h 53.06 z M 507.449,2162.21 V 507.449 H 2162.21 V 2162.21 H 507.449" /><path
         id="path44"
         style="fill:#040606;fill-opacity:1;fill-rule:nonzero;stroke:none"
         d="m 967.883,1396.41 h -22.735 c -34.75,0 -62.543,-28.43 -62.543,-62.53 v -102.3 c 0,-34.75 27.793,-62.55 62.543,-62.55 h 22.735 c 34.737,0 62.527,27.8 62.527,62.55 v 102.3 c 0,34.1 -27.79,62.53 -62.527,62.53" /></g></g></svg>