<?xml version="1.0" encoding="UTF-8" standalone="no"?>
<svg
   xmlns:dc="http://purl.org/dc/elements/1.1/"
   xmlns:cc="http://creativecommons.org/ns#"
   xmlns:rdf="http://www.w3.org/1999/02/22-rdf-syntax-ns#"
   xmlns:svg="http://www.w3.org/2000/svg"
   xmlns="http://www.w3.org/2000/svg"
   viewBox="0 0 571.71997 246.26666"
   height="246.26666"
   width="571.71997"
   xml:space="preserve"
   id="svg2"
   version="1.1"><metadata
     id="metadata8"><rdf:RDF><cc:Work
         rdf:about=""><dc:format>image/svg+xml</dc:format><dc:type
           rdf:resource="http://purl.org/dc/dcmitype/StillImage" /></cc:Work></rdf:RDF></metadata><defs
     id="defs6" /><g
     transform="matrix(1.3333333,0,0,-1.3333333,0,246.26667)"
     id="g10"><g
       transform="scale(0.1)"
       id="g12"><path
         id="path14"
         style="fill:#666a6f;fill-opacity:1;fill-rule:nonzero;stroke:none"
         d="m 254.734,870.543 c 0,539.277 437.153,976.437 976.426,976.437 v -74.93 c -497.89,0 -901.492,-403.62 -901.492,-901.507 0,-248.934 100.891,-474.305 264.023,-637.441 L 540.703,180.109 C 364.016,356.809 254.734,600.922 254.734,870.543" /><path
         id="path16"
         style="fill:#b5dc17;fill-opacity:1;fill-rule:nonzero;stroke:none"
         d="M 0,870.543 C 0,1210.5 137.773,1518.26 360.527,1741.05 L 475.41,1626.16 C 282.063,1432.78 162.473,1165.63 162.473,870.543 162.473,575.441 282.078,308.27 475.461,114.879 L 360.574,0 C 137.793,222.789 0,530.57 0,870.543" /><g
         transform="scale(10)"
         id="g18"><text
           id="text22"
           style="font-variant:normal;font-weight:normal;font-size:101.71600342px;font-family:DistillaBold;-inkscape-font-specification:DistillaBold;writing-mode:lr-tb;fill:#666a6f;fill-opacity:1;fill-rule:nonzero;stroke:none"
           transform="matrix(1,0,0,-1,169.426,68.4672)"><tspan
             id="tspan20"
             y="0"
             x="0 46.687645 96.426765 126.43264">core</tspan></text>
<text
           id="text26"
           style="font-variant:normal;font-weight:normal;font-size:81.3730011px;font-family:DistillaLight;-inkscape-font-specification:DistillaLight;writing-mode:lr-tb;fill:#666a6f;fill-opacity:1;fill-rule:nonzero;stroke:none"
           transform="matrix(1,0,0,-1,347.937,70.29806)"><tspan
             id="tspan24"
             y="0"
             x="0 38.733547">29</tspan></text>
</g><path
         id="path28"
         style="fill:#b5dc17;fill-opacity:1;fill-rule:nonzero;stroke:none"
         d="m 1231.16,41.8789 c -457.652,0 -828.648,371.0001 -828.648,828.6641 h 169.961 c 0,-363.781 294.898,-658.691 658.687,-658.691 V 41.8789" /><path
         id="path30"
         style="fill:#666a6f;fill-opacity:1;fill-rule:nonzero;stroke:none"
         d="m 619.973,870.543 c 0,337.557 273.632,611.207 611.187,611.207 v -82.5 c -291.988,0 -528.687,-236.71 -528.687,-528.707 h -82.5" /><path
         id="path32"
         style="fill:#b5dc17;fill-opacity:1;fill-rule:nonzero;stroke:none"
         d="m 767.461,870.543 c 0,256.107 207.605,463.707 463.699,463.707 128.05,0 243.97,-51.89 327.87,-135.8 L 1445.9,1085.31 c -54.95,54.95 -130.87,88.94 -214.74,88.94 -167.72,0 -303.687,-135.97 -303.687,-303.707 0,-167.734 135.967,-303.703 303.687,-303.703 83.84,0 159.74,33.969 214.69,88.89 l 113.14,-113.14 c -83.9,-83.879 -199.81,-135.75 -327.83,-135.75 -256.094,0 -463.699,207.609 -463.699,463.703" /><path
         id="path34"
         style="fill:#666a6f;fill-opacity:1;fill-rule:nonzero;stroke:none"
         d="m 992.473,870.543 c 0,131.837 106.867,238.707 238.687,238.707 65.92,0 125.59,-26.71 168.78,-69.9 l -58.24,-58.241 c -28.29,28.281 -67.37,45.771 -110.54,45.771 -86.34,0 -156.33,-69.989 -156.33,-156.337 0,-43.164 17.49,-82.242 45.78,-110.523 l -58.25,-58.25 c -43.19,43.199 -69.887,102.871 -69.887,168.773" /></g></g></svg>