<?xml version="1.0" encoding="UTF-8" standalone="no"?>
<!-- Created with Inkscape (http://www.inkscape.org/) -->

<svg
   xmlns:dc="http://purl.org/dc/elements/1.1/"
   xmlns:cc="http://creativecommons.org/ns#"
   xmlns:rdf="http://www.w3.org/1999/02/22-rdf-syntax-ns#"
   xmlns:svg="http://www.w3.org/2000/svg"
   xmlns="http://www.w3.org/2000/svg"
   xmlns:sodipodi="http://sodipodi.sourceforge.net/DTD/sodipodi-0.dtd"
   xmlns:inkscape="http://www.inkscape.org/namespaces/inkscape"
   id="svg3543"
   version="1.1"
   inkscape:version="0.92.1 r15371"
   xml:space="preserve"
   width="420mm"
   height="120mm"
   viewBox="0 0 1587.4016 453.54329"
   sodipodi:docname="Intelligent Plant Logo - A3 - width.svg"><title
     id="title3475">Intelligent Plant Logo-A3 Width</title><metadata
     id="metadata3549"><rdf:RDF><cc:Work
         rdf:about=""><dc:format>image/svg+xml</dc:format><dc:type
           rdf:resource="http://purl.org/dc/dcmitype/StillImage" /><dc:title>Intelligent Plant Logo-A3 Width</dc:title><dc:date>March 2019</dc:date><dc:creator><cc:Agent><dc:title>Tracey Gray</dc:title></cc:Agent></dc:creator><dc:rights><cc:Agent><dc:title>Copyright Intelligent Plant 2019</dc:title></cc:Agent></dc:rights><dc:description>Intelligent Plant Logo-A3 Width
Logo fitted to landscape view.</dc:description></cc:Work></rdf:RDF></metadata><defs
     id="defs3547"><clipPath
       id="clipPath4150"
       clipPathUnits="userSpaceOnUse"><path
         id="path4152"
         d="M 0,595.276 H 841.89 V 0 H 0 Z"
         inkscape:connector-curvature="0" /></clipPath></defs><sodipodi:namedview
     pagecolor="#ffffff"
     bordercolor="#666666"
     borderopacity="1"
     objecttolerance="1"
     gridtolerance="1"
     guidetolerance="1"
     inkscape:pageopacity="0"
     inkscape:pageshadow="2"
     inkscape:window-width="1680"
     inkscape:window-height="1027"
     id="namedview3545"
     showgrid="true"
     inkscape:zoom="0.96761905"
     inkscape:cx="793.70079"
     inkscape:cy="226.77165"
     inkscape:current-layer="g3551"
     units="mm"
     inkscape:showpageshadow="false"
     showborder="true"
     inkscape:window-x="1912"
     inkscape:window-y="-8"
     inkscape:window-maximized="1"><inkscape:grid
       type="xygrid"
       id="grid3409"
       color="#cccccc"
       opacity="0.1254902"
       empcolor="#4c4c4c"
       empopacity="0.25098039" /></sodipodi:namedview><g
     id="g3551"
     inkscape:groupmode="layer"
     inkscape:label="Available on App Store"
     transform="matrix(1.25,0,0,-1.25,0,425.9054)"><g
       transform="matrix(2.6268915,0,0,2.6268915,-453.71918,-611.79592)"
       id="g4144"
       style="stroke-width:0.93696851"><g
         id="g4146"
         style="stroke-width:0.93696851"><g
           clip-path="url(#clipPath4150)"
           id="g4148"
           style="stroke-width:0.93696851"><g
             transform="translate(650.1348,321.1235)"
             id="g4154"
             style="stroke-width:0.93696851"><path
               id="path4156"
               style="fill:#9c9b9d;fill-opacity:1;fill-rule:nonzero;stroke:none;stroke-width:0.93696851"
               d="M 0,0 H -1.746 L -2.799,-3.001 C -2.934,-3.45 -3.068,-3.965 -3.225,-4.525 h -0.021 c -0.158,0.627 -0.27,1.075 -0.404,1.546 L -4.703,0 h -1.815 l -0.447,-6.093 h 1.164 l 0.225,3.584 c 0.021,0.56 0.045,1.142 0.045,1.702 h 0.066 c 0.135,-0.537 0.315,-1.254 0.426,-1.724 l 1.098,-3.472 h 1.253 l 1.098,3.382 c 0.18,0.56 0.36,1.277 0.516,1.814 h 0.066 c 0.024,-0.649 0.024,-1.232 0.045,-1.702 l 0.225,-3.584 h 1.209 z m -12.432,-1.008 h 1.95 v -5.085 h 1.209 v 5.085 h 1.949 V 0 h -5.108 z m -8.306,-5.879 -5.457,-1.714 v -5.648 h -4.76 V -18.5 h 4.76 v -16.754 c 0,-3.618 0.57,-6.346 2.158,-7.996 1.332,-1.524 3.426,-2.413 6.029,-2.413 2.156,0 3.871,0.381 4.949,0.827 l -0.254,4.187 c -0.824,-0.254 -1.712,-0.381 -3.236,-0.381 -3.109,0 -4.189,2.158 -4.189,5.966 V -18.5 h 7.996 v 4.251 h -7.996 z m -24.18,-6.663 c -5.078,0 -8.631,-2.856 -10.154,-5.776 h -0.127 l -0.317,5.077 h -4.951 c 0.192,-2.538 0.254,-5.14 0.254,-8.313 v -22.401 h 5.584 v 18.466 c 0,0.952 0.127,1.904 0.381,2.602 0.953,3.11 3.809,5.712 7.49,5.712 5.266,0 7.108,-4.125 7.108,-9.075 v -17.705 h 5.584 v 18.339 c 0,10.535 -6.6,13.074 -10.852,13.074 m -27.48,-21.07 c 0,-0.571 -0.127,-1.206 -0.317,-1.777 -0.889,-2.602 -3.428,-5.141 -7.426,-5.141 -2.855,0 -5.267,1.714 -5.267,5.332 0,5.965 6.918,7.043 13.01,6.916 z m 5.394,8.504 c 0,6.156 -2.285,12.566 -11.678,12.566 -3.871,0 -7.55,-1.079 -10.089,-2.729 l 1.269,-3.681 c 2.158,1.396 5.141,2.285 7.996,2.285 6.283,0 6.981,-4.57 6.981,-7.108 v -0.635 c -11.868,0.064 -18.467,-3.999 -18.467,-11.422 0,-4.444 3.174,-8.823 9.392,-8.823 4.379,0 7.678,2.159 9.393,4.571 h 0.189 l 0.446,-3.871 h 5.076 c -0.381,2.093 -0.508,4.695 -0.508,7.361 z m -34.334,-18.847 h 5.584 V 0.094 h -5.584 z m -20.943,21.195 c -1.841,0 -3.365,0.127 -4.571,0.444 v 16.627 c 0.953,0.254 2.793,0.445 5.205,0.445 6.092,0 10.09,-2.729 10.09,-8.377 0,-5.902 -4.062,-9.139 -10.724,-9.139 m 12.502,18.341 c -2.539,2.284 -6.537,3.553 -11.995,3.553 -4.443,0 -7.933,-0.38 -10.598,-0.825 v -42.264 h 5.52 v 17.134 c 1.27,-0.318 2.793,-0.38 4.444,-0.38 5.394,0 10.152,1.585 13.072,4.695 2.158,2.221 3.301,5.267 3.301,9.139 0,3.807 -1.397,6.917 -3.744,8.948"
               inkscape:connector-curvature="0" /></g><g
             transform="translate(637.1396,243.4922)"
             id="g4158"
             style="stroke-width:0.93696851"><path
               id="path4160"
               style="fill:#9c9b9d;fill-opacity:1;fill-rule:nonzero;stroke:none;stroke-width:0.93696851"
               d="m 0,0 c -0.695,0 -1.184,-0.563 -1.184,-1.259 0,-0.62 0.413,-1.108 1.015,-1.108 h 0.019 c 0.713,0 1.202,0.564 1.202,1.24 C 1.052,-0.47 0.639,0 0,0 M -1.58,6.932 -3.891,1.859 C -4.359,0.863 -4.623,0.226 -4.867,-0.357 H -4.904 C -4.998,0.319 -5.111,0.996 -5.317,2.047 L -6.22,6.932 h -1.615 l 1.822,-8.547 c 0.019,-0.151 0.019,-0.264 -0.056,-0.414 -0.489,-0.882 -1.146,-1.616 -1.747,-2.084 -0.62,-0.489 -1.277,-0.734 -1.671,-0.883 l 0.375,-1.334 c 0.526,0.112 1.634,0.545 2.648,1.578 1.24,1.202 2.16,2.799 3.138,4.771 l 3.399,6.913 z m -8.002,4.244 -2.535,-13.336 h 1.54 l 2.555,13.336 z M -15.291,-0.15 c 0,0.469 0.075,0.939 0.169,1.446 l 0.846,4.414 h 2.178 l 0.244,1.222 h -2.178 l 0.413,2.177 -1.635,-0.505 -0.319,-1.672 h -1.296 L -17.113,5.71 h 1.315 L -16.7,1.108 c -0.131,-0.657 -0.188,-1.183 -0.188,-1.71 0,-0.919 0.527,-1.765 1.916,-1.765 0.451,0 0.92,0.076 1.202,0.17 l 0.076,1.239 c -0.207,-0.056 -0.47,-0.075 -0.733,-0.075 -0.601,0 -0.864,0.338 -0.864,0.883 m -5.785,7.288 c -1.334,0 -2.555,-0.714 -3.362,-1.992 h -0.038 l 0.226,1.786 h -1.391 C -25.753,6.18 -25.866,5.297 -26.072,4.283 l -1.221,-6.443 h 1.559 l 0.826,4.414 c 0.413,2.254 1.991,3.588 3.099,3.588 1.071,0 1.428,-0.676 1.428,-1.597 0,-0.376 -0.057,-0.807 -0.132,-1.165 l -0.995,-5.24 h 1.559 l 1.014,5.297 c 0.094,0.488 0.169,1.07 0.169,1.465 0,1.916 -1.22,2.536 -2.31,2.536 M -29.21,4.752 c 0,-1.408 -1.916,-1.729 -4.357,-1.709 0.375,1.428 1.483,2.874 2.967,2.874 0.827,0 1.39,-0.413 1.39,-1.146 z m -1.164,2.386 c -2.931,0 -4.959,-3.099 -4.959,-5.842 0,-2.01 1.052,-3.663 3.456,-3.663 1.221,0 2.329,0.338 3.005,0.732 l -0.225,1.165 c -0.563,-0.3 -1.372,-0.638 -2.442,-0.638 -0.94,0 -1.672,0.413 -2.028,1.221 -0.207,0.489 -0.264,1.333 -0.189,1.728 3.362,-0.057 6.049,0.582 6.049,2.968 0,1.295 -0.939,2.329 -2.667,2.329 m -8.04,-4.583 c -0.319,-1.785 -1.69,-3.475 -3.024,-3.475 -1.39,0 -1.747,1.183 -1.747,2.178 0.019,2.255 1.579,4.621 3.851,4.621 0.657,0 1.221,-0.169 1.503,-0.301 z M -44.8,0.996 c 0,-1.616 0.939,-3.156 2.761,-3.156 1.259,0 2.367,0.639 3.156,1.934 h 0.056 l -0.3,-1.352 c -0.545,-2.46 -1.747,-3.249 -3.269,-3.249 -0.958,0 -1.859,0.263 -2.404,0.6 l -0.451,-1.22 c 0.582,-0.376 1.615,-0.639 2.724,-0.639 1.051,0 2.272,0.226 3.174,1.015 0.958,0.807 1.465,2.14 1.841,4.057 l 1.39,7.513 c -0.714,0.339 -1.859,0.639 -2.911,0.639 -3.513,0 -5.785,-3.062 -5.767,-6.142 m -1.108,7.494 h 0.018 c 0.602,0 1.034,0.432 1.052,1.052 0,0.563 -0.356,0.977 -0.92,0.977 -0.563,0 -1.014,-0.451 -1.033,-1.052 0,-0.564 0.356,-0.977 0.883,-0.977 m -2.911,-10.65 h 1.558 l 1.747,9.092 h -1.559 z m -1.373,13.336 -2.536,-13.336 h 1.54 l 2.555,13.336 z m -3.926,0 -2.535,-13.336 h 1.54 l 2.554,13.336 z m -4.47,-6.424 c 0,-1.408 -1.916,-1.729 -4.357,-1.709 0.375,1.428 1.483,2.874 2.967,2.874 0.827,0 1.39,-0.413 1.39,-1.146 z m -1.164,2.386 c -2.931,0 -4.959,-3.099 -4.959,-5.842 0,-2.01 1.052,-3.663 3.456,-3.663 1.221,0 2.329,0.338 3.005,0.732 l -0.225,1.165 c -0.563,-0.3 -1.372,-0.638 -2.442,-0.638 -0.939,0 -1.672,0.413 -2.028,1.221 -0.207,0.489 -0.264,1.333 -0.189,1.728 3.363,-0.057 6.049,0.582 6.049,2.968 0,1.295 -0.939,2.329 -2.667,2.329 m -8.134,-7.288 c 0,0.469 0.075,0.939 0.169,1.446 l 0.846,4.414 h 2.179 l 0.244,1.222 h -2.179 l 0.413,2.177 -1.635,-0.505 -0.319,-1.672 h -1.296 L -69.708,5.71 h 1.315 l -0.902,-4.602 c -0.131,-0.657 -0.187,-1.183 -0.187,-1.71 0,-0.919 0.525,-1.765 1.916,-1.765 0.45,0 0.92,0.076 1.202,0.17 l 0.075,1.239 c -0.207,-0.056 -0.47,-0.075 -0.732,-0.075 -0.602,0 -0.865,0.338 -0.865,0.883 m -5.785,7.288 c -1.333,0 -2.555,-0.714 -3.362,-1.992 h -0.037 l 0.225,1.786 h -1.39 C -78.348,6.18 -78.461,5.297 -78.667,4.283 l -1.221,-6.443 h 1.559 l 0.826,4.414 c 0.413,2.254 1.991,3.588 3.1,3.588 1.07,0 1.427,-0.676 1.427,-1.597 0,-0.376 -0.056,-0.807 -0.131,-1.165 l -0.996,-5.24 h 1.559 l 1.015,5.297 c 0.093,0.488 0.169,1.07 0.169,1.465 0,1.916 -1.221,2.536 -2.311,2.536 m -7.775,3.362 -2.405,-12.66 h 1.559 l 2.404,12.66 z M -89.468,0 c -0.695,0 -1.183,-0.563 -1.183,-1.259 0,-0.62 0.413,-1.108 1.014,-1.108 h 0.019 c 0.714,0 1.202,0.564 1.202,1.24 0,0.657 -0.413,1.127 -1.052,1.127 m -1.502,6.932 -2.461,-5.26 c -0.357,-0.864 -0.62,-1.559 -0.864,-2.292 h -0.037 c 0.019,0.6 -0.057,1.372 -0.15,2.367 l -0.564,5.185 h -1.352 l -2.706,-5.28 c -0.451,-0.9 -0.789,-1.689 -0.995,-2.272 h -0.056 c 0.018,0.733 0.037,1.315 -0.038,2.442 l -0.319,5.11 h -1.541 l 0.846,-9.092 h 1.446 l 2.611,4.977 c 0.414,0.808 0.676,1.503 1.052,2.367 h 0.037 c 0,-0.788 0.039,-1.559 0.132,-2.405 l 0.601,-4.939 h 1.446 l 4.489,9.092 z m -17.113,-8.059 c -1.333,0 -2.141,1.07 -2.141,2.555 -0.019,2.085 1.296,4.47 3.25,4.47 1.634,0 2.122,-1.484 2.122,-2.536 0,-2.122 -1.389,-4.489 -3.231,-4.489 m 1.277,8.265 c -2.949,0 -5.033,-2.781 -5.033,-5.767 0,-2.047 1.277,-3.738 3.55,-3.738 3.043,0 5.034,2.912 5.034,5.711 0,1.934 -1.09,3.794 -3.551,3.794 M -111.481,7.1 c -0.114,0.019 -0.301,0.038 -0.433,0.038 -1.221,0 -2.197,-0.939 -2.78,-2.179 h -0.056 c 0.094,0.695 0.169,1.334 0.244,1.973 h -1.371 c -0.095,-0.846 -0.245,-2.048 -0.47,-3.232 l -1.108,-5.86 h 1.559 l 0.751,4.001 c 0.395,2.122 1.597,3.757 2.949,3.757 0.17,0 0.32,-0.02 0.414,-0.037 z m -14.426,1.653 c -1.635,-1.465 -2.481,-3.663 -2.481,-5.767 0,-1.257 0.321,-2.629 1.278,-3.7 0.959,-1.071 2.347,-1.577 4.132,-1.577 1.485,0 2.836,0.375 3.569,0.676 l 1.146,6.066 h -4.095 l -0.245,-1.277 h 2.575 l -0.714,-3.776 c -0.47,-0.206 -1.184,-0.356 -1.935,-0.356 -2.818,0 -4.039,1.615 -4.039,4.058 0,1.727 0.714,3.531 1.898,4.638 1.051,0.996 2.422,1.541 3.925,1.541 1.146,0 2.01,-0.225 2.667,-0.545 l 0.508,1.315 c -0.376,0.225 -1.428,0.582 -2.986,0.582 -2.029,0 -3.852,-0.694 -5.203,-1.878 m -10.838,-13.224 1.201,0.114 c 0.658,0.882 1.822,2.966 2.498,4.564 l -1.859,-0.188 c -0.413,-1.372 -1.258,-3.381 -1.84,-4.49 m -1.748,10.388 c 0.826,0 1.39,-0.413 1.39,-1.146 V 4.752 c 0,-1.408 -1.916,-1.729 -4.357,-1.709 0.375,1.428 1.483,2.874 2.967,2.874 m -0.94,-7.025 c -0.938,0 -1.671,0.413 -2.027,1.221 -0.207,0.489 -0.264,1.333 -0.188,1.728 3.362,-0.057 6.047,0.582 6.047,2.968 0,1.295 -0.939,2.329 -2.667,2.329 -2.93,0 -4.959,-3.099 -4.959,-5.842 0,-2.01 1.052,-3.663 3.456,-3.663 1.221,0 2.331,0.338 3.006,0.732 l -0.225,1.165 c -0.564,-0.3 -1.371,-0.638 -2.443,-0.638 m -5.69,6.93 c 0.677,0 1.183,-0.168 1.54,-0.338 l 0.451,1.241 c -0.282,0.15 -1.053,0.394 -1.897,0.394 -3.269,0 -5.56,-2.855 -5.56,-5.955 0,-1.934 1.146,-3.531 3.494,-3.531 1.221,0 2.159,0.338 2.629,0.564 l -0.15,1.24 c -0.469,-0.226 -1.184,-0.507 -2.104,-0.507 -1.484,0 -2.254,0.957 -2.254,2.423 0,2.141 1.485,4.469 3.851,4.469 m -9.036,1.316 c -1.333,0 -2.554,-0.714 -3.362,-1.992 h -0.038 l 0.226,1.786 h -1.391 c -0.111,-0.752 -0.224,-1.635 -0.431,-2.649 l -1.221,-6.443 h 1.559 l 0.827,4.414 c 0.413,2.254 1.991,3.588 3.098,3.588 1.072,0 1.428,-0.676 1.428,-1.597 0,-0.376 -0.057,-0.807 -0.131,-1.165 l -0.996,-5.24 h 1.559 l 1.015,5.297 c 0.094,0.488 0.168,1.07 0.168,1.465 0,1.916 -1.22,2.536 -2.31,2.536 m -9.128,-4.115 c -0.45,-2.421 -1.991,-4.113 -3.287,-4.113 -1.202,0 -1.56,0.996 -1.56,2.01 0.02,2.518 1.936,4.978 4.283,4.978 0.526,0 0.864,-0.076 1.09,-0.131 z m -6.462,-2.384 c 0,-1.729 1.015,-3.006 2.611,-3.006 1.296,0 2.535,0.677 3.532,2.555 h 0.037 c -0.113,-0.94 -0.206,-1.803 -0.206,-2.348 h 1.446 c -0.037,1.014 0.094,2.63 0.394,4.207 l 0.92,4.734 c -0.619,0.206 -1.578,0.357 -2.441,0.357 -3.963,0 -6.293,-3.343 -6.293,-6.499 m -3.457,6.499 c -1.371,0 -2.479,-0.714 -3.249,-1.822 h -0.038 l 1.127,5.86 h -1.559 L -179.46,-2.16 h 1.559 l 0.845,4.545 c 0.375,2.049 1.897,3.457 3.099,3.457 1.015,0 1.409,-0.658 1.409,-1.503 0,-0.507 -0.056,-0.921 -0.113,-1.259 l -1.014,-5.24 h 1.559 l 1.014,5.316 c 0.094,0.469 0.15,1.051 0.15,1.539 0,1.804 -1.221,2.443 -2.254,2.443 m -9.692,0 c -1.333,0 -2.554,-0.714 -3.363,-1.992 h -0.037 l 0.225,1.786 h -1.39 c -0.112,-0.752 -0.225,-1.635 -0.432,-2.649 l -1.221,-6.443 h 1.559 l 0.828,4.414 c 0.412,2.254 1.99,3.588 3.098,3.588 1.071,0 1.428,-0.676 1.428,-1.597 0,-0.376 -0.057,-0.807 -0.132,-1.165 l -0.995,-5.24 h 1.559 l 1.014,5.297 c 0.094,0.488 0.169,1.07 0.169,1.465 0,1.916 -1.222,2.536 -2.31,2.536 m -10.894,2.028 h 4.883 l 0.263,1.334 h -6.46 l -2.405,-12.66 h 6.742 l 0.264,1.334 h -5.184 l 0.864,4.621 h 4.601 l 0.264,1.314 h -4.603 z m -11.74,-13.637 1.203,0.114 c 0.656,0.882 1.821,2.966 2.498,4.564 l -1.859,-0.188 c -0.414,-1.372 -1.26,-3.381 -1.842,-4.49 m 0.206,9.223 c 0,1.709 -1.146,2.386 -2.197,2.386 -1.373,-0.019 -2.537,-0.714 -3.344,-2.029 -0.075,1.146 -0.733,2.029 -2.122,2.029 -1.203,0 -2.348,-0.658 -3.194,-1.916 h -0.056 l 0.244,1.71 h -1.371 c -0.094,-0.752 -0.226,-1.635 -0.413,-2.649 L -219,-2.16 h 1.521 l 0.845,4.564 c 0.357,1.935 1.766,3.438 2.912,3.438 1.145,0 1.352,-0.789 1.352,-1.559 0,-0.357 -0.037,-0.715 -0.112,-1.109 l -1.015,-5.334 h 1.503 l 0.883,4.658 c 0.376,2.029 1.71,3.344 2.837,3.344 1.013,0 1.371,-0.62 1.371,-1.578 0,-0.375 -0.057,-0.846 -0.132,-1.184 l -0.978,-5.24 h 1.522 l 1.015,5.372 c 0.094,0.507 0.15,1.108 0.15,1.54 M -218.625,7.1 c -0.113,0.019 -0.3,0.038 -0.432,0.038 -1.221,0 -2.197,-0.939 -2.78,-2.179 h -0.056 c 0.094,0.695 0.169,1.334 0.244,1.973 h -1.372 c -0.093,-0.846 -0.244,-2.048 -0.469,-3.232 l -1.108,-5.86 h 1.559 l 0.751,4.001 c 0.395,2.122 1.597,3.757 2.949,3.757 0.17,0 0.319,-0.02 0.414,-0.037 z m -11.514,-8.227 c -1.334,0 -2.141,1.07 -2.141,2.555 -0.019,2.085 1.296,4.47 3.249,4.47 1.635,0 2.123,-1.484 2.123,-2.536 0,-2.122 -1.39,-4.489 -3.231,-4.489 m 1.277,8.265 c -2.949,0 -5.034,-2.781 -5.034,-5.767 0,-2.047 1.277,-3.738 3.55,-3.738 3.043,0 5.034,2.912 5.034,5.711 0,1.934 -1.089,3.794 -3.55,3.794 m -4.583,-0.206 h -2.029 l 0.075,0.431 c 0.263,1.502 0.864,2.705 2.104,2.705 0.357,0 0.676,-0.056 0.92,-0.17 l 0.338,1.241 c -0.206,0.131 -0.619,0.244 -1.239,0.244 -0.789,0 -1.597,-0.281 -2.161,-0.808 -0.826,-0.732 -1.277,-1.897 -1.483,-3.175 l -0.094,-0.468 h -1.221 l -0.225,-1.241 h 1.202 l -1.484,-7.851 h 1.54 l 1.503,7.851 h 2.01 z m -8.96,0.206 c -1.334,0 -2.554,-0.714 -3.363,-1.992 h -0.037 l 0.225,1.786 h -1.39 c -0.112,-0.752 -0.225,-1.635 -0.431,-2.649 l -1.222,-6.443 h 1.56 l 0.826,4.414 c 0.413,2.254 1.991,3.588 3.099,3.588 1.071,0 1.428,-0.676 1.428,-1.597 0,-0.376 -0.057,-0.807 -0.132,-1.165 l -0.995,-5.24 h 1.559 l 1.014,5.297 c 0.094,0.488 0.169,1.07 0.169,1.465 0,1.916 -1.221,2.536 -2.31,2.536 m -7.777,3.362 -2.404,-12.66 h 1.559 l 2.404,12.66 z"
               inkscape:connector-curvature="0" /></g><g
             transform="translate(232.7559,305.085)"
             id="g4162"
             style="stroke-width:0.93696851"><path
               id="path4164"
               style="fill:#7ac143;fill-opacity:1;fill-rule:nonzero;stroke:none;stroke-width:0.93696851"
               d="m 0,0 c -0.167,-0.001 -0.323,-0.042 -0.477,-0.128 -0.305,-0.178 -0.486,-0.492 -0.491,-0.842 0,-0.177 0.043,-0.336 0.131,-0.49 0.173,-0.305 0.489,-0.486 0.845,-0.488 0.175,0 0.332,0.041 0.481,0.128 0.303,0.172 0.487,0.487 0.492,0.842 C 0.979,-0.799 0.938,-0.643 0.854,-0.492 0.674,-0.186 0.358,-0.002 0.008,0 H 0.005 Z m -15.792,-31.117 c -1.164,0 -2.112,0.945 -2.112,2.11 v 18.675 c 0,0.741 0.394,1.436 1.027,1.817 l 12.356,7.388 0.17,0.103 0.007,0.198 c 0.044,1.487 0.875,2.875 2.17,3.621 0.66,0.383 1.407,0.585 2.163,0.585 1.56,0 3.012,-0.834 3.791,-2.177 C 4.16,0.545 4.361,-0.207 4.361,-0.972 4.365,-2.518 3.532,-3.964 2.183,-4.748 1.523,-5.13 0.772,-5.331 0.01,-5.331 c -0.719,0 -1.44,0.186 -2.082,0.537 l -0.184,0.102 -0.177,-0.107 -11.072,-6.622 -0.176,-0.105 v -0.207 -17.274 c 0,-1.165 -0.947,-2.11 -2.111,-2.11 m -7.279,71.089 c -0.173,0 -0.331,-0.043 -0.485,-0.131 -0.3,-0.174 -0.483,-0.488 -0.49,-0.841 0,-0.18 0.044,-0.344 0.133,-0.493 0.17,-0.299 0.486,-0.483 0.842,-0.486 0.175,0 0.337,0.044 0.485,0.13 0.305,0.173 0.488,0.488 0.491,0.844 0,0.17 -0.041,0.326 -0.129,0.482 -0.174,0.309 -0.489,0.491 -0.844,0.495 h -10e-4 z m -13.321,-3.571 c -0.354,-0.003 -0.671,-0.186 -0.847,-0.491 -0.088,-0.152 -0.13,-0.311 -0.13,-0.482 0.004,-0.359 0.186,-0.674 0.486,-0.845 0.158,-0.09 0.317,-0.132 0.488,-0.132 0.358,0.005 0.671,0.185 0.845,0.481 0.089,0.161 0.13,0.318 0.132,0.488 -0.008,0.366 -0.189,0.68 -0.487,0.851 -0.151,0.086 -0.307,0.127 -0.481,0.13 h -0.002 z m 26.645,0.002 c -0.353,-0.005 -0.667,-0.188 -0.845,-0.493 -0.087,-0.152 -0.128,-0.308 -0.128,-0.482 0.006,-0.36 0.188,-0.675 0.489,-0.845 0.15,-0.088 0.308,-0.131 0.478,-0.132 0.362,0.005 0.676,0.185 0.849,0.482 0.09,0.161 0.132,0.319 0.132,0.491 -0.005,0.359 -0.188,0.675 -0.489,0.846 -0.152,0.088 -0.302,0.128 -0.475,0.133 h -0.006 z m -36.402,-9.754 c -0.173,0 -0.332,-0.044 -0.487,-0.133 -0.299,-0.174 -0.481,-0.488 -0.485,-0.843 0,-0.173 0.042,-0.331 0.13,-0.485 0.171,-0.302 0.486,-0.484 0.842,-0.49 0.176,0 0.334,0.042 0.486,0.128 0.306,0.175 0.489,0.492 0.492,0.846 0,0.174 -0.043,0.331 -0.129,0.485 -0.174,0.303 -0.49,0.487 -0.843,0.492 h -0.003 z m 46.154,0 c -0.172,0 -0.332,-0.044 -0.486,-0.133 -0.301,-0.176 -0.482,-0.489 -0.487,-0.839 0,-0.179 0.043,-0.338 0.132,-0.492 0.171,-0.3 0.486,-0.481 0.841,-0.487 0.177,0 0.334,0.042 0.484,0.129 0.303,0.173 0.487,0.487 0.492,0.843 -0.002,0.179 -0.043,0.333 -0.127,0.486 -0.182,0.311 -0.488,0.49 -0.846,0.493 H 0.007 Z M 3.575,13.323 C 3.221,13.322 2.906,13.138 2.73,12.833 2.644,12.682 2.603,12.525 2.603,12.35 2.606,11.99 2.79,11.675 3.092,11.503 c 0.15,-0.086 0.311,-0.128 0.482,-0.128 0.361,0.005 0.676,0.186 0.846,0.483 0.086,0.157 0.13,0.314 0.132,0.486 -0.006,0.365 -0.188,0.679 -0.489,0.85 -0.156,0.085 -0.306,0.128 -0.477,0.129 H 3.581 Z m -53.292,0 c -0.353,-0.003 -0.669,-0.186 -0.845,-0.49 -0.087,-0.158 -0.128,-0.314 -0.128,-0.483 0.003,-0.358 0.187,-0.673 0.489,-0.847 0.152,-0.087 0.311,-0.129 0.484,-0.129 0.357,0.002 0.672,0.184 0.844,0.484 0.09,0.153 0.132,0.313 0.132,0.489 -0.003,0.357 -0.186,0.671 -0.487,0.844 -0.147,0.086 -0.305,0.131 -0.482,0.132 h -0.003 z M -46.151,0 c -0.171,-0.001 -0.327,-0.042 -0.479,-0.13 -0.306,-0.176 -0.487,-0.49 -0.491,-0.844 0,-0.173 0.042,-0.33 0.13,-0.485 0.174,-0.306 0.489,-0.487 0.844,-0.489 0.176,0 0.333,0.041 0.484,0.126 0.306,0.175 0.489,0.491 0.492,0.847 0,0.173 -0.043,0.33 -0.129,0.484 -0.176,0.305 -0.491,0.489 -0.845,0.491 h -0.003 z m 23.065,-31.287 c -1.165,0 -2.112,0.95 -2.112,2.113 v 35.289 0.21 l -0.181,0.104 -9.837,5.71 -0.546,0.315 V 11.824 6.647 6.438 l 0.183,-0.106 6.097,-3.484 c 0.654,-0.376 1.061,-1.077 1.061,-1.833 l 0.004,-11.055 -0.012,-0.123 -0.003,-0.033 0.003,-0.05 c 0.003,-0.04 0.008,-0.107 0.008,-0.172 l 0.004,-18.586 c 0,-1.165 -0.948,-2.113 -2.113,-2.113 -1.166,0 -2.113,0.948 -2.113,2.113 v 17.153 0.21 l -0.182,0.105 -11.314,6.534 -0.156,0.09 -0.166,-0.069 c -0.544,-0.228 -1.124,-0.35 -1.678,-0.35 -1.562,0 -3.004,0.837 -3.778,2.182 -0.384,0.657 -0.584,1.409 -0.584,2.171 -0.005,1.549 0.83,2.996 2.177,3.775 0.659,0.382 1.411,0.584 2.175,0.584 1.556,0 2.998,-0.834 3.775,-2.175 0.382,-0.664 0.583,-1.416 0.583,-2.178 0,-0.089 -0.001,-0.175 -0.008,-0.262 l -0.018,-0.228 0.199,-0.115 8.43,-4.87 0.545,-0.315 v 0.629 5.709 0.21 l -0.183,0.106 -14.802,8.463 -0.161,0.092 -0.168,-0.074 c -0.559,-0.249 -1.166,-0.381 -1.754,-0.381 -0.764,0 -1.518,0.203 -2.184,0.584 -1.345,0.781 -2.181,2.227 -2.176,3.774 0,0.768 0.202,1.521 0.584,2.178 0.778,1.342 2.22,2.179 3.766,2.179 0.765,0 1.521,-0.202 2.185,-0.586 1.345,-0.781 2.179,-2.227 2.174,-3.771 0,-0.067 -0.002,-0.13 -0.005,-0.194 l -0.009,-0.221 0.192,-0.111 4.656,-2.662 0.543,-0.312 v 0.627 9.404 0.196 l -0.163,0.107 -3.841,2.508 -0.168,0.111 -0.183,-0.084 c -0.568,-0.262 -1.192,-0.399 -1.803,-0.399 -1.555,0 -3.002,0.832 -3.774,2.172 -0.384,0.664 -0.584,1.419 -0.584,2.179 -0.005,1.551 0.831,2.996 2.179,3.771 0.653,0.383 1.405,0.585 2.173,0.585 1.557,0 2.998,-0.834 3.775,-2.176 0.382,-0.661 0.583,-1.413 0.583,-2.175 l -0.001,-0.107 -10e-4,-0.06 -0.004,-0.2 0.169,-0.109 4.914,-3.212 c 0.595,-0.391 0.952,-1.051 0.952,-1.767 v -2.667 -0.21 l 0.18,-0.105 9.837,-5.713 0.547,-0.316 v 0.631 7.236 0.208 l -0.181,0.105 -11.829,6.899 c -0.647,0.378 -1.048,1.077 -1.048,1.826 v 3.152 0.212 l -0.185,0.104 -0.064,0.036 -0.058,0.032 c -1.35,0.777 -2.187,2.224 -2.187,3.777 0,0.761 0.203,1.513 0.585,2.175 0.777,1.344 2.22,2.179 3.768,2.179 0.764,0 1.518,-0.202 2.184,-0.584 1.345,-0.779 2.178,-2.226 2.173,-3.773 0.005,-0.761 -0.197,-1.514 -0.583,-2.179 -0.318,-0.546 -0.74,-1.007 -1.254,-1.367 l -0.156,-0.108 v -0.189 -2.045 -0.208 l 0.182,-0.106 8.106,-4.73 0.547,-0.32 v 0.633 10.185 0.202 l -0.172,0.106 c -0.606,0.378 -1.115,0.902 -1.473,1.52 -0.382,0.656 -0.583,1.407 -0.583,2.173 -0.004,1.555 0.83,3.001 2.176,3.774 0.665,0.383 1.418,0.585 2.177,0.585 1.558,0 2.997,-0.833 3.774,-2.175 0.382,-0.661 0.584,-1.414 0.584,-2.179 0.006,-1.501 -0.792,-2.924 -2.083,-3.716 l -0.173,-0.106 v -0.204 -3.59 -0.63 l 0.545,0.315 6.171,3.56 0.21,0.121 -0.031,0.24 c -0.018,0.146 -0.028,0.294 -0.028,0.441 0,0.761 0.202,1.513 0.585,2.175 0.777,1.344 2.221,2.179 3.769,2.179 0.769,0 1.522,-0.202 2.181,-0.583 1.348,-0.779 2.184,-2.225 2.178,-3.774 0,-0.76 -0.201,-1.513 -0.584,-2.178 -0.777,-1.339 -2.218,-2.175 -3.761,-2.175 -0.535,0 -1.026,0.087 -1.503,0.265 l -0.161,0.059 -0.148,-0.086 -9.241,-5.337 -0.182,-0.105 V 25.659 0.75 0.119 l 0.546,0.316 6.437,3.736 0.181,0.105 v 0.209 13.493 c 0,0.74 0.393,1.434 1.026,1.815 l 8.302,4.962 0.206,0.125 -0.033,0.239 c -0.029,0.2 -0.043,0.382 -0.043,0.552 -0.006,1.55 0.828,2.995 2.175,3.773 0.661,0.381 1.413,0.583 2.179,0.583 1.556,0 2.997,-0.834 3.775,-2.178 C 4.16,27.194 4.361,26.442 4.361,25.676 4.365,24.13 3.532,22.683 2.183,21.9 1.524,21.52 0.774,21.32 0.017,21.32 c -0.473,0 -0.939,0.076 -1.389,0.227 L -1.529,21.6 -1.674,21.515 -9.41,16.886 -9.585,16.78 V 16.575 7.359 6.729 l 0.545,0.315 8.092,4.696 0.2,0.114 -0.021,0.231 c -0.006,0.087 -0.008,0.175 -0.008,0.265 -0.006,0.758 0.196,1.51 0.583,2.178 0.777,1.342 2.219,2.179 3.765,2.179 0.774,0 1.529,-0.204 2.183,-0.588 C 7.102,15.342 7.937,13.898 7.932,12.35 7.932,11.584 7.731,10.831 7.35,10.167 6.573,8.828 5.129,7.994 3.581,7.994 3.01,7.994 2.429,8.114 1.903,8.338 L 1.735,8.412 1.577,8.32 -20.791,-4.664 l -0.18,-0.105 v -0.209 -24.196 c 0,-1.163 -0.948,-2.113 -2.115,-2.113"
               inkscape:connector-curvature="0" /></g><g
             transform="translate(379.1563,319.9478)"
             id="g4166"
             style="stroke-width:0.93696851"><path
               id="path4168"
               style="fill:#717073;fill-opacity:1;fill-rule:nonzero;stroke:none;stroke-width:0.93696851"
               d="m 0,0 c -2.602,0 -4.379,-1.84 -4.379,-4.251 0,-2.349 1.713,-4.189 4.316,-4.189 2.729,0 4.442,1.84 4.442,4.189 C 4.315,-1.84 2.666,0 0,0 m -3.935,-43.788 h 7.869 v 30.905 h -7.869 z m 34.207,13.517 c 0,-0.888 -0.127,-1.968 -0.317,-2.792 -0.889,-2.793 -3.427,-4.696 -6.347,-4.696 -4.886,0 -7.551,4.252 -7.551,9.518 0,6.283 3.236,10.091 7.615,10.091 3.3,0 5.521,-2.158 6.346,-5.013 0.19,-0.634 0.254,-1.396 0.254,-2.094 z m 0.952,13.264 h -0.127 c -1.46,2.538 -4.252,4.822 -8.948,4.822 -7.425,0 -14.025,-6.155 -14.025,-16.31 0,-8.756 5.458,-15.103 13.136,-15.103 4.062,0 7.235,1.841 9.012,4.57 h 0.127 v -2.666 c 0,-6.664 -3.808,-9.328 -8.885,-9.328 -3.726,0 -7.01,1.193 -8.981,2.331 l -1.176,-6.194 c 2.669,-1.439 6.547,-2.166 10.221,-2.166 4.252,0 8.694,0.888 11.93,3.744 3.237,2.919 4.57,7.552 4.57,14.025 v 17.515 c 0,4.252 0.127,6.79 0.254,8.885 h -6.791 z m 93.673,-1.714 v 5.839 h -7.424 v 7.932 l -7.616,-2.221 v -5.711 h -4.443 v -5.839 h 4.443 v -14.532 c 0,-4.062 0.762,-6.855 2.412,-8.631 1.46,-1.587 3.871,-2.603 6.727,-2.603 2.475,0 4.506,0.381 5.648,0.826 l -0.127,5.965 c -0.888,-0.254 -1.587,-0.381 -3.046,-0.381 -2.983,0 -3.998,1.967 -3.998,5.711 v 13.645 z m -75.141,-6.346 c 0.318,3.173 2.348,7.552 7.172,7.552 5.203,0 6.472,-4.696 6.41,-7.552 z m 7.615,12.882 c -9.899,0 -15.103,-8.059 -15.103,-16.626 0,-9.456 5.902,-15.676 15.929,-15.676 4.442,0 8.123,0.889 10.788,1.968 l -1.142,5.394 c -2.349,-0.888 -4.95,-1.396 -8.568,-1.396 -4.949,0 -9.328,2.411 -9.519,7.996 h 20.689 c 0.127,0.698 0.254,1.841 0.254,3.3 0,6.791 -3.236,15.04 -13.328,15.04 m 34.399,0 c -5.141,0 -8.504,-2.919 -9.838,-5.33 h -0.19 l -0.381,4.633 h -6.853 c 0.189,-2.666 0.254,-5.648 0.254,-9.202 v -21.704 h 7.869 v 18.15 c 0,0.888 0.062,1.841 0.316,2.538 0.826,2.349 2.983,4.57 6.093,4.57 4.252,0 5.901,-3.364 5.901,-7.806 v -17.452 h 7.807 v 18.34 c 0,9.773 -5.585,13.263 -10.978,13.263 M -18.023,-43.788 h 7.869 V 1.269 h -7.869 z m -81.044,31.603 c -5.141,0 -8.504,-2.919 -9.837,-5.33 h -0.19 l -0.381,4.633 h -6.854 c 0.191,-2.666 0.254,-5.648 0.254,-9.202 v -21.704 h 7.869 v 18.15 c 0,0.888 0.064,1.841 0.318,2.538 0.825,2.349 2.982,4.57 6.092,4.57 4.252,0 5.902,-3.364 5.902,-7.806 v -17.452 h 7.806 v 18.34 c 0,9.773 -5.585,13.263 -10.979,13.263 m -31.096,-31.603 h 7.869 V 1.269 h -7.869 z m 73.046,18.721 c 0.318,3.173 2.348,7.552 7.172,7.552 5.203,0 6.473,-4.696 6.409,-7.552 z m 7.616,12.882 c -9.9,0 -15.104,-8.059 -15.104,-16.626 0,-9.456 5.902,-15.676 15.929,-15.676 4.442,0 8.123,0.889 10.788,1.968 l -1.142,5.394 c -2.348,-0.888 -4.95,-1.396 -8.567,-1.396 -4.95,0 -9.329,2.411 -9.52,7.996 h 20.689 c 0.127,0.698 0.254,1.841 0.254,3.3 0,6.791 -3.237,15.04 -13.327,15.04 m 17.39,-31.603 h 7.869 V 1.269 h -7.869 z m -41.252,38.838 -7.616,-2.221 v -5.711 h -4.442 v -5.839 h 4.442 v -14.532 c 0,-4.062 0.762,-6.855 2.412,-8.631 1.459,-1.587 3.871,-2.603 6.727,-2.603 2.475,0 4.506,0.381 5.648,0.826 l -0.127,5.965 c -0.889,-0.254 -1.587,-0.381 -3.046,-0.381 -2.983,0 -3.998,1.967 -3.998,5.711 v 13.645 h 7.425 v 5.839 h -7.425 z"
               inkscape:connector-curvature="0" /></g></g></g></g></g></svg>